<mxfile host="app.diagrams.net" agent="Mozilla/5.0 (X11; Linux x86_64; rv:128.0) Gecko/20100101 Firefox/128.0" version="25.0.3">
  <diagram name="Page-1" id="wnDVQPhdN0yrqGdEhT5-">
    <mxGraphModel dx="2034" dy="1126" grid="1" gridSize="10" guides="1" tooltips="1" connect="1" arrows="1" fold="1" page="1" pageScale="1" pageWidth="850" pageHeight="1100" math="0" shadow="0">
      <root>
        <mxCell id="0" />
        <mxCell id="1" parent="0" />
        <mxCell id="FzjDU5e3YEK2CfJTqNCw-506" value="Level 1 DFD" style="whiteSpace=wrap;strokeWidth=2;verticalAlign=top;" vertex="1" parent="1">
          <mxGeometry x="20" y="20" width="2461" height="1704" as="geometry" />
        </mxCell>
        <mxCell id="FzjDU5e3YEK2CfJTqNCw-507" value="End User" style="rounded=1;whiteSpace=wrap;arcSize=50;strokeWidth=2;" vertex="1" parent="FzjDU5e3YEK2CfJTqNCw-506">
          <mxGeometry x="2062" y="46" width="90" height="33" as="geometry" />
        </mxCell>
        <mxCell id="FzjDU5e3YEK2CfJTqNCw-508" value="Authentication" style="whiteSpace=wrap;strokeWidth=2;" vertex="1" parent="FzjDU5e3YEK2CfJTqNCw-506">
          <mxGeometry x="1734" y="176" width="197" height="48" as="geometry" />
        </mxCell>
        <mxCell id="FzjDU5e3YEK2CfJTqNCw-509" value="Moderator" style="rounded=1;whiteSpace=wrap;arcSize=50;strokeWidth=2;" vertex="1" parent="FzjDU5e3YEK2CfJTqNCw-506">
          <mxGeometry x="1854" y="1642" width="96" height="33" as="geometry" />
        </mxCell>
        <mxCell id="FzjDU5e3YEK2CfJTqNCw-510" value="Branch Officer" style="rounded=1;whiteSpace=wrap;arcSize=50;strokeWidth=2;" vertex="1" parent="FzjDU5e3YEK2CfJTqNCw-506">
          <mxGeometry x="2081" y="1642" width="125" height="33" as="geometry" />
        </mxCell>
        <mxCell id="FzjDU5e3YEK2CfJTqNCw-511" value="Admin" style="rounded=1;whiteSpace=wrap;arcSize=50;strokeWidth=2;" vertex="1" parent="FzjDU5e3YEK2CfJTqNCw-506">
          <mxGeometry x="2256" y="1642" width="69" height="33" as="geometry" />
        </mxCell>
        <mxCell id="FzjDU5e3YEK2CfJTqNCw-512" value="User Records" style="shape=cylinder3;boundedLbl=1;backgroundOutline=1;size=10;strokeWidth=2;whiteSpace=wrap;" vertex="1" parent="FzjDU5e3YEK2CfJTqNCw-506">
          <mxGeometry x="64" y="321" width="113" height="69" as="geometry" />
        </mxCell>
        <mxCell id="FzjDU5e3YEK2CfJTqNCw-513" value="Dashboard" style="whiteSpace=wrap;strokeWidth=2;" vertex="1" parent="FzjDU5e3YEK2CfJTqNCw-506">
          <mxGeometry x="697" y="331" width="174" height="48" as="geometry" />
        </mxCell>
        <mxCell id="FzjDU5e3YEK2CfJTqNCw-514" value="Equipment Management" style="whiteSpace=wrap;strokeWidth=2;" vertex="1" parent="FzjDU5e3YEK2CfJTqNCw-506">
          <mxGeometry x="97" y="486" width="172" height="66" as="geometry" />
        </mxCell>
        <mxCell id="FzjDU5e3YEK2CfJTqNCw-515" value="Personnel Management" style="whiteSpace=wrap;strokeWidth=2;" vertex="1" parent="FzjDU5e3YEK2CfJTqNCw-506">
          <mxGeometry x="586" y="486" width="168" height="66" as="geometry" />
        </mxCell>
        <mxCell id="FzjDU5e3YEK2CfJTqNCw-516" value="Unit Management" style="whiteSpace=wrap;strokeWidth=2;" vertex="1" parent="FzjDU5e3YEK2CfJTqNCw-506">
          <mxGeometry x="811" y="495" width="222" height="48" as="geometry" />
        </mxCell>
        <mxCell id="FzjDU5e3YEK2CfJTqNCw-517" value="Reporting System" style="whiteSpace=wrap;strokeWidth=2;" vertex="1" parent="FzjDU5e3YEK2CfJTqNCw-506">
          <mxGeometry x="1229" y="495" width="223" height="48" as="geometry" />
        </mxCell>
        <mxCell id="FzjDU5e3YEK2CfJTqNCw-518" value="Equipment Records" style="shape=cylinder3;boundedLbl=1;backgroundOutline=1;size=10;strokeWidth=2;whiteSpace=wrap;" vertex="1" parent="FzjDU5e3YEK2CfJTqNCw-506">
          <mxGeometry x="252" y="659" width="156" height="75" as="geometry" />
        </mxCell>
        <mxCell id="FzjDU5e3YEK2CfJTqNCw-519" value="Personnel Records" style="shape=cylinder3;boundedLbl=1;backgroundOutline=1;size=10;strokeWidth=2;whiteSpace=wrap;" vertex="1" parent="FzjDU5e3YEK2CfJTqNCw-506">
          <mxGeometry x="486" y="659" width="151" height="74" as="geometry" />
        </mxCell>
        <mxCell id="FzjDU5e3YEK2CfJTqNCw-520" value="Unit Records" style="shape=cylinder3;boundedLbl=1;backgroundOutline=1;size=10;strokeWidth=2;whiteSpace=wrap;" vertex="1" parent="FzjDU5e3YEK2CfJTqNCw-506">
          <mxGeometry x="727" y="663" width="107" height="68" as="geometry" />
        </mxCell>
        <mxCell id="FzjDU5e3YEK2CfJTqNCw-521" value="PDF Generation Service" style="whiteSpace=wrap;strokeWidth=2;" vertex="1" parent="FzjDU5e3YEK2CfJTqNCw-506">
          <mxGeometry x="1560" y="664" width="211" height="66" as="geometry" />
        </mxCell>
        <mxCell id="FzjDU5e3YEK2CfJTqNCw-522" value="E-Signature System" style="whiteSpace=wrap;strokeWidth=2;" vertex="1" parent="FzjDU5e3YEK2CfJTqNCw-506">
          <mxGeometry x="1546" y="841" width="238" height="48" as="geometry" />
        </mxCell>
        <mxCell id="FzjDU5e3YEK2CfJTqNCw-523" value="OTP Verification" style="whiteSpace=wrap;strokeWidth=2;" vertex="1" parent="FzjDU5e3YEK2CfJTqNCw-506">
          <mxGeometry x="1560" y="986" width="211" height="48" as="geometry" />
        </mxCell>
        <mxCell id="FzjDU5e3YEK2CfJTqNCw-524" value="Report Records" style="shape=cylinder3;boundedLbl=1;backgroundOutline=1;size=10;strokeWidth=2;whiteSpace=wrap;" vertex="1" parent="FzjDU5e3YEK2CfJTqNCw-506">
          <mxGeometry x="1602" y="1131" width="127" height="71" as="geometry" />
        </mxCell>
        <mxCell id="FzjDU5e3YEK2CfJTqNCw-525" value="Report Routing System" style="whiteSpace=wrap;strokeWidth=2;" vertex="1" parent="FzjDU5e3YEK2CfJTqNCw-506">
          <mxGeometry x="1559" y="1316" width="212" height="66" as="geometry" />
        </mxCell>
        <mxCell id="FzjDU5e3YEK2CfJTqNCw-526" value="Notification System" style="whiteSpace=wrap;strokeWidth=2;" vertex="1" parent="FzjDU5e3YEK2CfJTqNCw-506">
          <mxGeometry x="1920" y="1497" width="240" height="48" as="geometry" />
        </mxCell>
        <mxCell id="FzjDU5e3YEK2CfJTqNCw-527" value="Logging &amp; Auditing System" style="shape=cylinder3;boundedLbl=1;backgroundOutline=1;size=10;strokeWidth=2;whiteSpace=wrap;" vertex="1" parent="FzjDU5e3YEK2CfJTqNCw-506">
          <mxGeometry x="1030" y="649" width="185" height="95" as="geometry" />
        </mxCell>
        <mxCell id="FzjDU5e3YEK2CfJTqNCw-528" value="Login" style="curved=1;startArrow=none;endArrow=block;exitX=0;exitY=0.81;entryX=0.5;entryY=-0.01;rounded=0;" edge="1" parent="FzjDU5e3YEK2CfJTqNCw-506" source="FzjDU5e3YEK2CfJTqNCw-507" target="FzjDU5e3YEK2CfJTqNCw-508">
          <mxGeometry relative="1" as="geometry">
            <Array as="points">
              <mxPoint x="1833" y="127" />
            </Array>
          </mxGeometry>
        </mxCell>
        <mxCell id="FzjDU5e3YEK2CfJTqNCw-529" value="Login" style="curved=1;startArrow=none;endArrow=block;exitX=0.42;exitY=-0.01;entryX=0.57;entryY=0.99;rounded=0;" edge="1" parent="FzjDU5e3YEK2CfJTqNCw-506" source="FzjDU5e3YEK2CfJTqNCw-509" target="FzjDU5e3YEK2CfJTqNCw-508">
          <mxGeometry relative="1" as="geometry">
            <Array as="points">
              <mxPoint x="1871" y="1593" />
              <mxPoint x="1871" y="272" />
            </Array>
          </mxGeometry>
        </mxCell>
        <mxCell id="FzjDU5e3YEK2CfJTqNCw-530" value="Login" style="curved=1;startArrow=none;endArrow=block;exitX=0.67;exitY=-0.01;entryX=1;entryY=0.87;rounded=0;" edge="1" parent="FzjDU5e3YEK2CfJTqNCw-506" source="FzjDU5e3YEK2CfJTqNCw-510" target="FzjDU5e3YEK2CfJTqNCw-508">
          <mxGeometry relative="1" as="geometry">
            <Array as="points">
              <mxPoint x="2229" y="1593" />
              <mxPoint x="2229" y="272" />
            </Array>
          </mxGeometry>
        </mxCell>
        <mxCell id="FzjDU5e3YEK2CfJTqNCw-531" value="Login" style="curved=1;startArrow=none;endArrow=block;exitX=0.66;exitY=-0.01;entryX=1;entryY=0.79;rounded=0;" edge="1" parent="FzjDU5e3YEK2CfJTqNCw-506" source="FzjDU5e3YEK2CfJTqNCw-511" target="FzjDU5e3YEK2CfJTqNCw-508">
          <mxGeometry relative="1" as="geometry">
            <Array as="points">
              <mxPoint x="2334" y="1593" />
              <mxPoint x="2334" y="272" />
            </Array>
          </mxGeometry>
        </mxCell>
        <mxCell id="FzjDU5e3YEK2CfJTqNCw-532" value="Verify Credentials" style="curved=1;startArrow=none;endArrow=block;exitX=0;exitY=0.58;entryX=0.5;entryY=-0.01;rounded=0;" edge="1" parent="FzjDU5e3YEK2CfJTqNCw-506" source="FzjDU5e3YEK2CfJTqNCw-508" target="FzjDU5e3YEK2CfJTqNCw-512">
          <mxGeometry relative="1" as="geometry">
            <Array as="points">
              <mxPoint x="120" y="272" />
            </Array>
          </mxGeometry>
        </mxCell>
        <mxCell id="FzjDU5e3YEK2CfJTqNCw-533" value="Grant Access" style="curved=1;startArrow=none;endArrow=block;exitX=0;exitY=0.63;entryX=0.5;entryY=0;rounded=0;" edge="1" parent="FzjDU5e3YEK2CfJTqNCw-506" source="FzjDU5e3YEK2CfJTqNCw-508" target="FzjDU5e3YEK2CfJTqNCw-513">
          <mxGeometry relative="1" as="geometry">
            <Array as="points">
              <mxPoint x="784" y="272" />
            </Array>
          </mxGeometry>
        </mxCell>
        <mxCell id="FzjDU5e3YEK2CfJTqNCw-534" value="Access Equipment" style="curved=1;startArrow=none;endArrow=block;exitX=0;exitY=0.75;entryX=0.5;entryY=0;rounded=0;" edge="1" parent="FzjDU5e3YEK2CfJTqNCw-506" source="FzjDU5e3YEK2CfJTqNCw-513" target="FzjDU5e3YEK2CfJTqNCw-514">
          <mxGeometry relative="1" as="geometry">
            <Array as="points">
              <mxPoint x="183" y="438" />
            </Array>
          </mxGeometry>
        </mxCell>
        <mxCell id="FzjDU5e3YEK2CfJTqNCw-535" value="Access Personnel" style="curved=1;startArrow=none;endArrow=block;exitX=0.31;exitY=1;entryX=0.5;entryY=0;rounded=0;" edge="1" parent="FzjDU5e3YEK2CfJTqNCw-506" source="FzjDU5e3YEK2CfJTqNCw-513" target="FzjDU5e3YEK2CfJTqNCw-515">
          <mxGeometry relative="1" as="geometry">
            <Array as="points">
              <mxPoint x="669" y="438" />
            </Array>
          </mxGeometry>
        </mxCell>
        <mxCell id="FzjDU5e3YEK2CfJTqNCw-536" value="Access Units" style="curved=1;startArrow=none;endArrow=block;exitX=0.73;exitY=1;entryX=0.5;entryY=0;rounded=0;" edge="1" parent="FzjDU5e3YEK2CfJTqNCw-506" source="FzjDU5e3YEK2CfJTqNCw-513" target="FzjDU5e3YEK2CfJTqNCw-516">
          <mxGeometry relative="1" as="geometry">
            <Array as="points">
              <mxPoint x="922" y="438" />
            </Array>
          </mxGeometry>
        </mxCell>
        <mxCell id="FzjDU5e3YEK2CfJTqNCw-537" value="Generate Reports" style="curved=1;startArrow=none;endArrow=block;exitX=1;exitY=0.77;entryX=0.5;entryY=0;rounded=0;" edge="1" parent="FzjDU5e3YEK2CfJTqNCw-506" source="FzjDU5e3YEK2CfJTqNCw-513" target="FzjDU5e3YEK2CfJTqNCw-517">
          <mxGeometry relative="1" as="geometry">
            <Array as="points">
              <mxPoint x="1341" y="438" />
            </Array>
          </mxGeometry>
        </mxCell>
        <mxCell id="FzjDU5e3YEK2CfJTqNCw-538" value="CRUD Operations" style="curved=1;startArrow=block;endArrow=block;exitX=0.35;exitY=1;entryX=0;entryY=0.03;rounded=0;" edge="1" parent="FzjDU5e3YEK2CfJTqNCw-506" source="FzjDU5e3YEK2CfJTqNCw-514" target="FzjDU5e3YEK2CfJTqNCw-518">
          <mxGeometry relative="1" as="geometry">
            <Array as="points">
              <mxPoint x="118" y="600" />
            </Array>
          </mxGeometry>
        </mxCell>
        <mxCell id="FzjDU5e3YEK2CfJTqNCw-539" value="CRUD Operations" style="curved=1;startArrow=block;endArrow=block;exitX=0.05;exitY=1;entryX=0.3;entryY=0;rounded=0;" edge="1" parent="FzjDU5e3YEK2CfJTqNCw-506" source="FzjDU5e3YEK2CfJTqNCw-515" target="FzjDU5e3YEK2CfJTqNCw-519">
          <mxGeometry relative="1" as="geometry">
            <Array as="points">
              <mxPoint x="482" y="600" />
            </Array>
          </mxGeometry>
        </mxCell>
        <mxCell id="FzjDU5e3YEK2CfJTqNCw-540" value="CRUD Operations" style="curved=1;startArrow=block;endArrow=block;exitX=0.5;exitY=1;entryX=0.97;entryY=-0.01;rounded=0;" edge="1" parent="FzjDU5e3YEK2CfJTqNCw-506" source="FzjDU5e3YEK2CfJTqNCw-516" target="FzjDU5e3YEK2CfJTqNCw-520">
          <mxGeometry x="-0.1087" y="-12" relative="1" as="geometry">
            <Array as="points">
              <mxPoint x="922" y="600" />
            </Array>
            <mxPoint as="offset" />
          </mxGeometry>
        </mxCell>
        <mxCell id="FzjDU5e3YEK2CfJTqNCw-541" value="Fetch Data" style="curved=1;startArrow=none;endArrow=block;exitX=0.21;exitY=1;entryX=0.99;entryY=0.37;rounded=0;" edge="1" parent="FzjDU5e3YEK2CfJTqNCw-506" source="FzjDU5e3YEK2CfJTqNCw-517" target="FzjDU5e3YEK2CfJTqNCw-518">
          <mxGeometry x="-0.3543" y="-15" relative="1" as="geometry">
            <Array as="points">
              <mxPoint x="1122" y="600" />
            </Array>
            <mxPoint as="offset" />
          </mxGeometry>
        </mxCell>
        <mxCell id="FzjDU5e3YEK2CfJTqNCw-542" value="Fetch Data" style="curved=1;startArrow=none;endArrow=block;exitX=0.35;exitY=1;entryX=1;entryY=0.36;rounded=0;" edge="1" parent="FzjDU5e3YEK2CfJTqNCw-506" source="FzjDU5e3YEK2CfJTqNCw-517" target="FzjDU5e3YEK2CfJTqNCw-519">
          <mxGeometry x="-0.0296" y="-4" relative="1" as="geometry">
            <Array as="points">
              <mxPoint x="1225" y="600" />
            </Array>
            <mxPoint as="offset" />
          </mxGeometry>
        </mxCell>
        <mxCell id="FzjDU5e3YEK2CfJTqNCw-543" value="Fetch Data" style="curved=1;startArrow=none;endArrow=block;exitX=0.48;exitY=1;entryX=1.01;entryY=0.35;rounded=0;" edge="1" parent="FzjDU5e3YEK2CfJTqNCw-506" source="FzjDU5e3YEK2CfJTqNCw-517" target="FzjDU5e3YEK2CfJTqNCw-520">
          <mxGeometry relative="1" as="geometry">
            <Array as="points">
              <mxPoint x="1327" y="600" />
            </Array>
          </mxGeometry>
        </mxCell>
        <mxCell id="FzjDU5e3YEK2CfJTqNCw-544" value="Generate PDF" style="curved=1;startArrow=none;endArrow=block;exitX=0.63;exitY=1;entryX=0.14;entryY=-0.01;rounded=0;" edge="1" parent="FzjDU5e3YEK2CfJTqNCw-506" source="FzjDU5e3YEK2CfJTqNCw-517" target="FzjDU5e3YEK2CfJTqNCw-521">
          <mxGeometry x="0.4847" y="-2" relative="1" as="geometry">
            <Array as="points">
              <mxPoint x="1442" y="600" />
            </Array>
            <mxPoint as="offset" />
          </mxGeometry>
        </mxCell>
        <mxCell id="FzjDU5e3YEK2CfJTqNCw-545" value="Apply E-Signature" style="curved=1;startArrow=none;endArrow=block;exitX=0.5;exitY=0.99;entryX=0.5;entryY=0;rounded=0;" edge="1" parent="FzjDU5e3YEK2CfJTqNCw-506" source="FzjDU5e3YEK2CfJTqNCw-521" target="FzjDU5e3YEK2CfJTqNCw-522">
          <mxGeometry relative="1" as="geometry">
            <Array as="points" />
          </mxGeometry>
        </mxCell>
        <mxCell id="FzjDU5e3YEK2CfJTqNCw-546" value="Verify via OTP" style="curved=1;startArrow=none;endArrow=block;exitX=0.5;exitY=1;entryX=0.5;entryY=0;rounded=0;" edge="1" parent="FzjDU5e3YEK2CfJTqNCw-506" source="FzjDU5e3YEK2CfJTqNCw-522" target="FzjDU5e3YEK2CfJTqNCw-523">
          <mxGeometry relative="1" as="geometry">
            <Array as="points" />
          </mxGeometry>
        </mxCell>
        <mxCell id="FzjDU5e3YEK2CfJTqNCw-547" value="Confirm Sign" style="curved=1;startArrow=none;endArrow=block;exitX=0.5;exitY=1;entryX=0.5;entryY=0;rounded=0;" edge="1" parent="FzjDU5e3YEK2CfJTqNCw-506" source="FzjDU5e3YEK2CfJTqNCw-523" target="FzjDU5e3YEK2CfJTqNCw-524">
          <mxGeometry relative="1" as="geometry">
            <Array as="points" />
          </mxGeometry>
        </mxCell>
        <mxCell id="FzjDU5e3YEK2CfJTqNCw-548" value="Send Signed Report to Next-Level Moderator" style="curved=1;startArrow=none;endArrow=block;exitX=0.5;exitY=1;entryX=0.5;entryY=0.01;rounded=0;" edge="1" parent="FzjDU5e3YEK2CfJTqNCw-506" source="FzjDU5e3YEK2CfJTqNCw-524" target="FzjDU5e3YEK2CfJTqNCw-525">
          <mxGeometry relative="1" as="geometry">
            <Array as="points" />
          </mxGeometry>
        </mxCell>
        <mxCell id="FzjDU5e3YEK2CfJTqNCw-549" value="Store &amp; Notify Higher-Level Moderator" style="curved=1;startArrow=none;endArrow=block;exitX=0.5;exitY=1;entryX=0.04;entryY=-0.01;rounded=0;" edge="1" parent="FzjDU5e3YEK2CfJTqNCw-506" source="FzjDU5e3YEK2CfJTqNCw-525" target="FzjDU5e3YEK2CfJTqNCw-526">
          <mxGeometry relative="1" as="geometry">
            <Array as="points">
              <mxPoint x="1665" y="1439" />
            </Array>
          </mxGeometry>
        </mxCell>
        <mxCell id="FzjDU5e3YEK2CfJTqNCw-550" value="Send Email" style="curved=1;startArrow=none;endArrow=block;exitX=0.94;exitY=-0.01;entryX=1;entryY=0.79;rounded=0;" edge="1" parent="FzjDU5e3YEK2CfJTqNCw-506" source="FzjDU5e3YEK2CfJTqNCw-526" target="FzjDU5e3YEK2CfJTqNCw-507">
          <mxGeometry relative="1" as="geometry">
            <Array as="points">
              <mxPoint x="2397" y="1439" />
              <mxPoint x="2397" y="127" />
            </Array>
          </mxGeometry>
        </mxCell>
        <mxCell id="FzjDU5e3YEK2CfJTqNCw-551" value="Send Email" style="curved=1;startArrow=none;endArrow=block;exitX=0.35;exitY=0.99;entryX=0.59;entryY=-0.01;rounded=0;" edge="1" parent="FzjDU5e3YEK2CfJTqNCw-506" source="FzjDU5e3YEK2CfJTqNCw-526" target="FzjDU5e3YEK2CfJTqNCw-509">
          <mxGeometry relative="1" as="geometry">
            <Array as="points">
              <mxPoint x="1934" y="1593" />
            </Array>
          </mxGeometry>
        </mxCell>
        <mxCell id="FzjDU5e3YEK2CfJTqNCw-552" value="Send Email" style="curved=1;startArrow=none;endArrow=block;exitX=0.5;exitY=0.99;entryX=0.29;entryY=-0.01;rounded=0;" edge="1" parent="FzjDU5e3YEK2CfJTqNCw-506" source="FzjDU5e3YEK2CfJTqNCw-526" target="FzjDU5e3YEK2CfJTqNCw-510">
          <mxGeometry relative="1" as="geometry">
            <Array as="points">
              <mxPoint x="2040" y="1593" />
            </Array>
          </mxGeometry>
        </mxCell>
        <mxCell id="FzjDU5e3YEK2CfJTqNCw-553" value="Send Email" style="curved=1;startArrow=none;endArrow=block;exitX=0.67;exitY=0.99;entryX=0.04;entryY=-0.01;rounded=0;" edge="1" parent="FzjDU5e3YEK2CfJTqNCw-506" source="FzjDU5e3YEK2CfJTqNCw-526" target="FzjDU5e3YEK2CfJTqNCw-511">
          <mxGeometry relative="1" as="geometry">
            <Array as="points">
              <mxPoint x="2166" y="1593" />
            </Array>
          </mxGeometry>
        </mxCell>
        <mxCell id="FzjDU5e3YEK2CfJTqNCw-554" value="Log Actions" style="curved=1;startArrow=none;endArrow=block;exitX=0.9;exitY=1;entryX=0;entryY=0.38;rounded=0;" edge="1" parent="FzjDU5e3YEK2CfJTqNCw-506" source="FzjDU5e3YEK2CfJTqNCw-514" target="FzjDU5e3YEK2CfJTqNCw-527">
          <mxGeometry relative="1" as="geometry">
            <Array as="points">
              <mxPoint x="351" y="600" />
            </Array>
          </mxGeometry>
        </mxCell>
        <mxCell id="FzjDU5e3YEK2CfJTqNCw-555" value="Log Actions" style="curved=1;startArrow=none;endArrow=block;exitX=0.65;exitY=1;entryX=0;entryY=0.26;rounded=0;" edge="1" parent="FzjDU5e3YEK2CfJTqNCw-506" source="FzjDU5e3YEK2CfJTqNCw-515" target="FzjDU5e3YEK2CfJTqNCw-527">
          <mxGeometry x="-0.3539" y="4" relative="1" as="geometry">
            <Array as="points">
              <mxPoint x="740" y="580" />
            </Array>
            <mxPoint as="offset" />
          </mxGeometry>
        </mxCell>
        <mxCell id="FzjDU5e3YEK2CfJTqNCw-556" value="Log Actions" style="curved=1;startArrow=none;endArrow=block;exitX=0.79;exitY=1;entryX=1;entryY=0.28;rounded=0;" edge="1" parent="FzjDU5e3YEK2CfJTqNCw-506" source="FzjDU5e3YEK2CfJTqNCw-517" target="FzjDU5e3YEK2CfJTqNCw-527">
          <mxGeometry x="-0.3645" y="-68" relative="1" as="geometry">
            <Array as="points">
              <mxPoint x="1559" y="600" />
            </Array>
            <mxPoint x="76" y="36" as="offset" />
          </mxGeometry>
        </mxCell>
        <mxCell id="FzjDU5e3YEK2CfJTqNCw-557" value="Log User Login" style="curved=1;startArrow=none;endArrow=block;exitX=0.3;exitY=0.99;entryX=1;entryY=0.34;rounded=0;" edge="1" parent="FzjDU5e3YEK2CfJTqNCw-506" source="FzjDU5e3YEK2CfJTqNCw-508" target="FzjDU5e3YEK2CfJTqNCw-527">
          <mxGeometry x="0.5379" y="-37" relative="1" as="geometry">
            <Array as="points">
              <mxPoint x="1713" y="272" />
              <mxPoint x="1713" y="600" />
            </Array>
            <mxPoint as="offset" />
          </mxGeometry>
        </mxCell>
      </root>
    </mxGraphModel>
  </diagram>
</mxfile>
